<mxfile host="Electron" modified="2024-03-20T14:26:16.828Z" agent="Mozilla/5.0 (Windows NT 10.0; Win64; x64) AppleWebKit/537.36 (KHTML, like Gecko) draw.io/24.0.4 Chrome/120.0.6099.109 Electron/28.1.0 Safari/537.36" etag="QLpoF7INbFwTJxoqxh8N" version="24.0.4" type="device">
  <diagram name="Pagina-1" id="rflWc28rTStmKsiYrMPG">
    <mxGraphModel dx="1050" dy="621" grid="1" gridSize="10" guides="1" tooltips="1" connect="1" arrows="1" fold="1" page="1" pageScale="1" pageWidth="827" pageHeight="1169" math="0" shadow="0">
      <root>
        <mxCell id="0" />
        <mxCell id="1" parent="0" />
        <mxCell id="NU1t4Nlwpfly1TBt85DP-10" style="edgeStyle=orthogonalEdgeStyle;rounded=0;orthogonalLoop=1;jettySize=auto;html=1;entryX=0;entryY=0.5;entryDx=0;entryDy=0;" edge="1" parent="1" source="NU1t4Nlwpfly1TBt85DP-1" target="NU1t4Nlwpfly1TBt85DP-4">
          <mxGeometry relative="1" as="geometry" />
        </mxCell>
        <mxCell id="NU1t4Nlwpfly1TBt85DP-11" style="edgeStyle=orthogonalEdgeStyle;rounded=0;orthogonalLoop=1;jettySize=auto;html=1;entryX=0;entryY=0.5;entryDx=0;entryDy=0;" edge="1" parent="1" source="NU1t4Nlwpfly1TBt85DP-1" target="NU1t4Nlwpfly1TBt85DP-6">
          <mxGeometry relative="1" as="geometry" />
        </mxCell>
        <mxCell id="NU1t4Nlwpfly1TBt85DP-12" style="edgeStyle=orthogonalEdgeStyle;rounded=0;orthogonalLoop=1;jettySize=auto;html=1;entryX=0;entryY=0.5;entryDx=0;entryDy=0;" edge="1" parent="1" source="NU1t4Nlwpfly1TBt85DP-1" target="NU1t4Nlwpfly1TBt85DP-9">
          <mxGeometry relative="1" as="geometry" />
        </mxCell>
        <mxCell id="NU1t4Nlwpfly1TBt85DP-31" style="edgeStyle=orthogonalEdgeStyle;rounded=0;orthogonalLoop=1;jettySize=auto;html=1;entryX=0;entryY=0.5;entryDx=0;entryDy=0;endArrow=doubleBlock;endFill=1;" edge="1" parent="1" source="NU1t4Nlwpfly1TBt85DP-1" target="NU1t4Nlwpfly1TBt85DP-30">
          <mxGeometry relative="1" as="geometry" />
        </mxCell>
        <mxCell id="NU1t4Nlwpfly1TBt85DP-1" value="Utente" style="rounded=0;whiteSpace=wrap;html=1;" vertex="1" parent="1">
          <mxGeometry y="210" width="120" height="60" as="geometry" />
        </mxCell>
        <mxCell id="NU1t4Nlwpfly1TBt85DP-18" style="edgeStyle=orthogonalEdgeStyle;rounded=0;orthogonalLoop=1;jettySize=auto;html=1;entryX=0;entryY=0.5;entryDx=0;entryDy=0;" edge="1" parent="1" source="NU1t4Nlwpfly1TBt85DP-2" target="NU1t4Nlwpfly1TBt85DP-14">
          <mxGeometry relative="1" as="geometry" />
        </mxCell>
        <mxCell id="NU1t4Nlwpfly1TBt85DP-19" style="edgeStyle=orthogonalEdgeStyle;rounded=0;orthogonalLoop=1;jettySize=auto;html=1;entryX=0;entryY=0.5;entryDx=0;entryDy=0;" edge="1" parent="1" source="NU1t4Nlwpfly1TBt85DP-2" target="NU1t4Nlwpfly1TBt85DP-16">
          <mxGeometry relative="1" as="geometry" />
        </mxCell>
        <mxCell id="NU1t4Nlwpfly1TBt85DP-32" style="edgeStyle=orthogonalEdgeStyle;rounded=0;orthogonalLoop=1;jettySize=auto;html=1;entryX=1;entryY=0.5;entryDx=0;entryDy=0;" edge="1" parent="1" source="NU1t4Nlwpfly1TBt85DP-2" target="NU1t4Nlwpfly1TBt85DP-30">
          <mxGeometry relative="1" as="geometry" />
        </mxCell>
        <mxCell id="NU1t4Nlwpfly1TBt85DP-35" style="edgeStyle=orthogonalEdgeStyle;rounded=0;orthogonalLoop=1;jettySize=auto;html=1;entryX=0;entryY=0.5;entryDx=0;entryDy=0;" edge="1" parent="1" source="NU1t4Nlwpfly1TBt85DP-2" target="NU1t4Nlwpfly1TBt85DP-33">
          <mxGeometry relative="1" as="geometry" />
        </mxCell>
        <mxCell id="NU1t4Nlwpfly1TBt85DP-2" value="Prestito" style="rounded=0;whiteSpace=wrap;html=1;" vertex="1" parent="1">
          <mxGeometry x="380" y="210" width="120" height="60" as="geometry" />
        </mxCell>
        <mxCell id="NU1t4Nlwpfly1TBt85DP-27" style="edgeStyle=orthogonalEdgeStyle;rounded=0;orthogonalLoop=1;jettySize=auto;html=1;entryX=0;entryY=0.5;entryDx=0;entryDy=0;" edge="1" parent="1" source="NU1t4Nlwpfly1TBt85DP-3" target="NU1t4Nlwpfly1TBt85DP-20">
          <mxGeometry relative="1" as="geometry" />
        </mxCell>
        <mxCell id="NU1t4Nlwpfly1TBt85DP-28" style="edgeStyle=orthogonalEdgeStyle;rounded=0;orthogonalLoop=1;jettySize=auto;html=1;entryX=0;entryY=0.5;entryDx=0;entryDy=0;" edge="1" parent="1" source="NU1t4Nlwpfly1TBt85DP-3" target="NU1t4Nlwpfly1TBt85DP-22">
          <mxGeometry relative="1" as="geometry" />
        </mxCell>
        <mxCell id="NU1t4Nlwpfly1TBt85DP-29" style="edgeStyle=orthogonalEdgeStyle;rounded=0;orthogonalLoop=1;jettySize=auto;html=1;entryX=0;entryY=0.5;entryDx=0;entryDy=0;" edge="1" parent="1" source="NU1t4Nlwpfly1TBt85DP-3" target="NU1t4Nlwpfly1TBt85DP-25">
          <mxGeometry relative="1" as="geometry" />
        </mxCell>
        <mxCell id="NU1t4Nlwpfly1TBt85DP-36" style="edgeStyle=orthogonalEdgeStyle;rounded=0;orthogonalLoop=1;jettySize=auto;html=1;entryX=1;entryY=0.5;entryDx=0;entryDy=0;" edge="1" parent="1" source="NU1t4Nlwpfly1TBt85DP-3" target="NU1t4Nlwpfly1TBt85DP-33">
          <mxGeometry relative="1" as="geometry" />
        </mxCell>
        <mxCell id="NU1t4Nlwpfly1TBt85DP-3" value="Libro" style="rounded=0;whiteSpace=wrap;html=1;" vertex="1" parent="1">
          <mxGeometry x="740" y="210" width="120" height="60" as="geometry" />
        </mxCell>
        <mxCell id="NU1t4Nlwpfly1TBt85DP-4" value="" style="ellipse;whiteSpace=wrap;html=1;aspect=fixed;" vertex="1" parent="1">
          <mxGeometry x="80" y="290" width="20" height="20" as="geometry" />
        </mxCell>
        <mxCell id="NU1t4Nlwpfly1TBt85DP-5" value="Nome" style="text;html=1;align=center;verticalAlign=middle;resizable=0;points=[];autosize=1;strokeColor=none;fillColor=none;" vertex="1" parent="1">
          <mxGeometry x="100" y="285" width="60" height="30" as="geometry" />
        </mxCell>
        <mxCell id="NU1t4Nlwpfly1TBt85DP-6" value="" style="ellipse;whiteSpace=wrap;html=1;aspect=fixed;" vertex="1" parent="1">
          <mxGeometry x="80" y="315" width="20" height="20" as="geometry" />
        </mxCell>
        <mxCell id="NU1t4Nlwpfly1TBt85DP-7" value="Cognome" style="text;html=1;align=center;verticalAlign=middle;resizable=0;points=[];autosize=1;strokeColor=none;fillColor=none;" vertex="1" parent="1">
          <mxGeometry x="90" y="310" width="80" height="30" as="geometry" />
        </mxCell>
        <mxCell id="NU1t4Nlwpfly1TBt85DP-8" value="Email" style="text;html=1;align=center;verticalAlign=middle;resizable=0;points=[];autosize=1;strokeColor=none;fillColor=none;" vertex="1" parent="1">
          <mxGeometry x="105" y="340" width="50" height="30" as="geometry" />
        </mxCell>
        <mxCell id="NU1t4Nlwpfly1TBt85DP-9" value="" style="ellipse;whiteSpace=wrap;html=1;aspect=fixed;" vertex="1" parent="1">
          <mxGeometry x="80" y="345" width="20" height="20" as="geometry" />
        </mxCell>
        <mxCell id="NU1t4Nlwpfly1TBt85DP-14" value="" style="ellipse;whiteSpace=wrap;html=1;aspect=fixed;" vertex="1" parent="1">
          <mxGeometry x="480" y="300" width="20" height="20" as="geometry" />
        </mxCell>
        <mxCell id="NU1t4Nlwpfly1TBt85DP-15" value="DataRitorno" style="text;html=1;align=center;verticalAlign=middle;resizable=0;points=[];autosize=1;strokeColor=none;fillColor=none;" vertex="1" parent="1">
          <mxGeometry x="500" y="325" width="90" height="30" as="geometry" />
        </mxCell>
        <mxCell id="NU1t4Nlwpfly1TBt85DP-16" value="" style="ellipse;whiteSpace=wrap;html=1;aspect=fixed;" vertex="1" parent="1">
          <mxGeometry x="480" y="330" width="20" height="20" as="geometry" />
        </mxCell>
        <mxCell id="NU1t4Nlwpfly1TBt85DP-17" value="DataPrestito" style="text;html=1;align=center;verticalAlign=middle;resizable=0;points=[];autosize=1;strokeColor=none;fillColor=none;" vertex="1" parent="1">
          <mxGeometry x="500" y="295" width="90" height="30" as="geometry" />
        </mxCell>
        <mxCell id="NU1t4Nlwpfly1TBt85DP-20" value="" style="ellipse;whiteSpace=wrap;html=1;aspect=fixed;" vertex="1" parent="1">
          <mxGeometry x="840" y="290" width="20" height="20" as="geometry" />
        </mxCell>
        <mxCell id="NU1t4Nlwpfly1TBt85DP-21" value="AnnoPubblicazione" style="text;html=1;align=center;verticalAlign=middle;resizable=0;points=[];autosize=1;strokeColor=none;fillColor=none;" vertex="1" parent="1">
          <mxGeometry x="850" y="315" width="130" height="30" as="geometry" />
        </mxCell>
        <mxCell id="NU1t4Nlwpfly1TBt85DP-22" value="" style="ellipse;whiteSpace=wrap;html=1;aspect=fixed;" vertex="1" parent="1">
          <mxGeometry x="840" y="320" width="20" height="20" as="geometry" />
        </mxCell>
        <mxCell id="NU1t4Nlwpfly1TBt85DP-23" value="Titolo" style="text;html=1;align=center;verticalAlign=middle;resizable=0;points=[];autosize=1;strokeColor=none;fillColor=none;" vertex="1" parent="1">
          <mxGeometry x="880" y="285" width="50" height="30" as="geometry" />
        </mxCell>
        <mxCell id="NU1t4Nlwpfly1TBt85DP-25" value="" style="ellipse;whiteSpace=wrap;html=1;aspect=fixed;" vertex="1" parent="1">
          <mxGeometry x="840" y="350" width="20" height="20" as="geometry" />
        </mxCell>
        <mxCell id="NU1t4Nlwpfly1TBt85DP-26" value="Disponibilita" style="text;html=1;align=center;verticalAlign=middle;resizable=0;points=[];autosize=1;strokeColor=none;fillColor=none;" vertex="1" parent="1">
          <mxGeometry x="860" y="345" width="90" height="30" as="geometry" />
        </mxCell>
        <mxCell id="NU1t4Nlwpfly1TBt85DP-30" value="Effetua" style="rhombus;whiteSpace=wrap;html=1;" vertex="1" parent="1">
          <mxGeometry x="210" y="200" width="80" height="80" as="geometry" />
        </mxCell>
        <mxCell id="NU1t4Nlwpfly1TBt85DP-33" value="Riguarda" style="rhombus;whiteSpace=wrap;html=1;" vertex="1" parent="1">
          <mxGeometry x="590" y="200" width="80" height="80" as="geometry" />
        </mxCell>
        <mxCell id="NU1t4Nlwpfly1TBt85DP-34" value="" style="endArrow=none;html=1;rounded=0;" edge="1" parent="1">
          <mxGeometry width="50" height="50" relative="1" as="geometry">
            <mxPoint x="160" y="270" as="sourcePoint" />
            <mxPoint x="160" y="210" as="targetPoint" />
          </mxGeometry>
        </mxCell>
        <mxCell id="NU1t4Nlwpfly1TBt85DP-37" value="" style="endArrow=none;html=1;rounded=0;" edge="1" parent="1">
          <mxGeometry width="50" height="50" relative="1" as="geometry">
            <mxPoint x="710" y="280" as="sourcePoint" />
            <mxPoint x="710" y="210" as="targetPoint" />
          </mxGeometry>
        </mxCell>
      </root>
    </mxGraphModel>
  </diagram>
</mxfile>
